# xmcd CD database file
#
# Track frame offsets:
#	150
#	13575
#	36777
#	55276
#	77931
#	98973
#	113283
#	129693
#	146338
#	159519
#	178950
#
# Disc length: 2604 seconds
#
# Revision: 0
# Processed by: cddbd v1.5.2PL0 Copyright (c) Steve Scherf et al.
# Submitted via: CDex 1.51
#
DISCID=8d0a2a0b
DTITLE=Sunjay Brayne - Seems So Real
DYEAR=2011
DGENRE=Blues
TTITLE0=Love You Like A Man
TTITLE1=Golden Heart
TTITLE2=Seems So Real
TTITLE3=Tangled Up In Blue
TTITLE4=Sometimes In This Life
TTITLE5=Three Way Love Affair
TTITLE6=Street Riot
TTITLE7=Help Me Now
TTITLE8=The Devil May Ride
TTITLE9=Can't Shake These Blues
TTITLE10=Statesboro Blues
EXTD=YEAR: 2011
EXTT0=
EXTT1=
EXTT2=
EXTT3=
EXTT4=
EXTT5=
EXTT6=
EXTT7=
EXTT8=
EXTT9=
EXTT10=
PLAYORDER=
